/* XPM */
static char *_e7e9f39863344288f1945a59e217bf3[] = {
/* columns rows colors chars-per-pixel */
"64 64 179 2 ",
"   c #B72F00",
".  c #AE3B00",
"X  c #B53600",
"o  c #BB3300",
"O  c #B33D00",
"+  c #BC3C00",
"@  c #C23700",
"#  c #C13F00",
"$  c #AE4201",
"%  c #B44300",
"&  c #BB4500",
"*  c #BD4901",
"=  c #B2460B",
"-  c #B6480C",
";  c #BC4B0B",
":  c #A5441A",
">  c #A9461C",
",  c #AF4A1F",
"<  c #B64913",
"1  c #BA4B14",
"2  c #B54B1C",
"3  c #BB4D1A",
"4  c #BE501E",
"5  c #AF4B21",
"6  c #B34D23",
"7  c #BA4F21",
"8  c #B34F28",
"9  c #B75027",
"0  c #BD5123",
"q  c #B5512C",
"w  c #BB542D",
"e  c #A75236",
"r  c #A6553C",
"t  c #AB573B",
"y  c #B75531",
"u  c #BA5733",
"i  c #B75837",
"p  c #BD5935",
"a  c #BC5B39",
"s  c #C24500",
"d  c #C24A00",
"f  c #CB4E00",
"g  c #C14D0A",
"h  c #CB5100",
"j  c #C5510D",
"k  c #C04E12",
"l  c #C04F19",
"z  c #C65213",
"x  c #CA5412",
"c  c #C2511C",
"v  c #CB561B",
"b  c #CD591E",
"n  c #D0591C",
"m  c #C25424",
"M  c #C65827",
"N  c #C95826",
"B  c #C1562D",
"V  c #C6592A",
"C  c #CA5B2C",
"Z  c #D05B22",
"A  c #C05730",
"S  c #C25933",
"D  c #CA5E31",
"F  c #C35D39",
"G  c #CB6137",
"H  c #A55A44",
"J  c #AA5C45",
"K  c #A65E4A",
"L  c #AA5F4A",
"P  c #9C6051",
"I  c #A6614E",
"U  c #AB614D",
"Y  c #B7634A",
"T  c #BA654C",
"R  c #A46454",
"E  c #AA6654",
"W  c #AC6857",
"Q  c #AC6A59",
"!  c #B36A56",
"~  c #B06E5D",
"^  c #B4715E",
"/  c #9C6C60",
"(  c #9E756C",
")  c #9D7D75",
"_  c #A47367",
"`  c #A0766C",
"'  c #AF7668",
"]  c #A4796E",
"[  c #AB796D",
"{  c #B17768",
"}  c #B57969",
"|  c #BA7C6C",
" . c #A57D73",
".. c #AA7D72",
"X. c #B07F72",
"o. c #C26242",
"O. c #C96745",
"+. c #CA6947",
"@. c #C66A4C",
"#. c #CC6C4C",
"$. c #D06E4C",
"%. c #D5714F",
"&. c #C56F55",
"*. c #C96E51",
"=. c #D06F50",
"-. c #C57057",
";. c #CB7155",
":. c #C6725A",
">. c #CD755A",
",. c #D27455",
"<. c #D87553",
"1. c #D2775A",
"2. c #D3795C",
"3. c #DA7C5C",
"4. c #C47E6B",
"5. c #D67D61",
"6. c #D97E60",
"7. c #9F847D",
"8. c #A78076",
"9. c #AA8177",
"0. c #A5847C",
"q. c #AB857B",
"w. c #BA8172",
"e. c #B2867B",
"r. c #B88679",
"t. c #B3897E",
"y. c #D7866E",
"u. c #C38473",
"i. c #CA8673",
"p. c #CB8976",
"a. c #C58A7B",
"s. c #CC8C7B",
"d. c #D28975",
"f. c #D98970",
"g. c #D28E7B",
"h. c #D88F7A",
"j. c #CE907F",
"k. c #D4917E",
"l. c #D9937E",
"z. c #A48C85",
"x. c #A98E87",
"c. c #A68E88",
"v. c #A98F88",
"b. c #B28E85",
"n. c #AC928B",
"m. c #B49087",
"M. c #B99187",
"N. c #B2958D",
"B. c #BB9489",
"V. c #B7988F",
"C. c #BA988F",
"Z. c #A99690",
"A. c #AD9B95",
"S. c #B29790",
"D. c #B69991",
"F. c #BA9B92",
"G. c #B59F98",
"H. c #BB9F98",
"J. c #BDA097",
"K. c #B4A19B",
"L. c #BCA29A",
"P. c #CF9280",
"I. c #C1968B",
"U. c #C49A8E",
"Y. c #C89C8F",
"T. c #D49381",
"R. c #DA9783",
"E. c #D49887",
"W. c #DA9884",
"Q. c #D49989",
"!. c #C59D92",
"~. c #CA9F92",
"^. c #C7A095",
"/. c #CCA195",
"(. c #C2A59C",
"). c #CAA499",
"_. c #D1A396",
"`. c #D4A698",
"'. c #C3A8A0",
/* pixels */
")._._._.`.`._._._.B.G./.~./._._._._./.~.m.(./._._.`.`._./._.Y.S.(.~./._._._._././.B.K._._._._.`.`._._.~.N.L.~./._./._._././.Y.N.",
"h.d D V V V N V N < C.,.d D N N N N V d ! ~.b V V V N N V D s q.g.s D m m N C m m 1 F.,.j C V V V N V f W !.x V V N N V N V s ..",
"p.% y w w q w w w 8 V.:.3 y q w w u y 3 Q !.7 w q w w w w y & 9.s.& a w y w B w w 8 C.&.< y w w w y y 3 W !.m w w w w w y y 1 ..",
"s.* F w B w S w V 8 D.:.c F w w S B S 3 ! !.m u u B w A B F * x.s.d F w w B A S V 8 D.:.4 p B w w V F c W !.m S w w w B A D 1 ..",
"| . q 6 8 6 7 6 2 , v.Y % 5 8 9 7 5 8 % R b.= 6 7 8 8 7 2 5 O  .| . 6 6 8 8 2 7 2 > n.Y % 8 8 q 6 6 6 % R m.- 6 2 8 8 6 7 8 O ( ",
"(.F.F.N.z.n.F.F.F.F.'.(.F.F.N.z.n.F.F.F.F.'.F.F.D.x.z.F.F.F.F.(.'.F.F.C.x.n.F.D.F.F.'.H.D.F.n.z.V.F.F.F.J.'.J.F.F.x.x.D.F.F.F.L.",
";.1.>.@.{ ).3.3.5.6.3.2.6.5.O.m.E.<.>.1.1.,.1.1.:.Y F.f.3.5.5.3.5.6.5.*.} /.,.2.2.1.,.>.1.>.o.b.Q.<.5.5.3.3.6.2.1.@.H.y.;.1.1.1.",
"< 1 7 * E Y.* < - < 3 < - 2 + q.a.+ 7 < 3 3 < 1 l = F.*.O 3 < 1 < < 3 & W C.d 3 < < 3 < < 0 + q.s.o 2 < 1 1 < < 1 = D.@.* 3 < 3 ",
"p p a 0 W ~.D p p p S S a a - q.a.g a u p p p p F 8 F.1.7 a p S S F a 7 Q !.m a u p u p p a ; q.T.; a p p S a p p q D.-.m a p p ",
"d * * # K I.d % & & 1 * * ; o  .u.o ; * ; ; * * s . n.+.+ * % 1 ; * * + K M.+ * * * 1 * & g o  .i.o - * ; 1 * & & . b.o.+ & * - ",
" .q.q.q.z.K.q.q.q.8. .9.q.0.8.A.D.8.q.q. . .q.q.q.0.G.b.8.z.q.]  .q.q. .v.K.q.q.q.9.] 9.q.q.9.A.D.9.q.q. .] q.q.0.0.G.x.q.q.q.( ",
"_.T.R.T.T.k.T.T.T.w.K.E.k.k.k.k.k.T.T.s.t.(.k.T.T.T.l.T.T.T.i.Z./.g.T.T.T.g.T.k.k.w.L.Q.k.T.T.l.T.T.k.k.t.(.g.k.T.T.T.T.T.k.u.N.",
"d.o 1 d * * * * & % D.#.+ ; d * d d * + Y Y.s * * d * * * ; o 9.s.o l * * * d * * % F.+.+ * d * * * ; s I Y.s * * * * d * * + [ ",
"s.- a y p y p p p q D.:.0 a y u p p a 7 Q !.w u u p y p p a ; q.s.; F y p y p p p q D.-.8 a u u p p u m W !.w F u u u p u a 3 ..",
"i.+ m l c 4 c 4 c - V.@.* 0 4 4 c 3 m d E I.d c 1 c 7 c c m s 9.p.# m 3 l m l c l - V.@.* m l 7 0 c 0 s E Y.d c 3 3 m l 3 m * [ ",
"t.K Q E U U E E E R n.' I E E U E E E U ( S.E W W W L E E E L z.b.K E R E L E E E R Z.' L Q E U U E E U ` n.E E E E L E W W L 7.",
"/./.~.I.n.L./././._.`.`.`./.I.Z.(.~.~././._.~.~.!.m.A./._././.`.`._./.!.N.G.~././.~._./.~.!.M.n.(./././.`.`._._./.M.A.^./.^.^._.",
"m V V d W ~.Z D D C C C D D s t.h.f S N N N M V c < F.2.v G D C C D D h ! ~.n V M V N m C V + b.k.h G C C C D C N 4 C.,.x V N N ",
"w w y 3 E ~.m w w w w w q y & q.a.* y q w w w q w 8 C.:.- w q w w q y 1 E F.m y q w w w w i & q.s.% y w w w w q w 8 V.-.3 w w w ",
"A w F l W ~.V y w B w A p p * q.a.d p A w A w A B 8 F.>.3 p w S B F p l W U.c F w w B u B F * q.T.d p w w S S w w 9 N.-.c p w w ",
"7 6 8 % P M.1 5 6 8 7 8 6 5 . 7.X.O 8 7 8 8 2 6 2 : n.&.. 6 6 7 8 6 6 % R b.- 5 7 8 8 7 6 6 O ) u.O 8 6 8 8 6 6 5 > z.Y % 9 9 5 ",
"n.F.F.F.H.'.F.D.F.v.c.D.F.D.V.L.(.D.D.F.x.n.D.F.F.F.'.F.D.F.S.z.N.F.D.N.F.(.F.D.D.n.z.D.F.F.D.L.(.D.F.D.z.n.D.D.D.F.(.J.D.D.S.z.",
"W.,.2.2.2.1.2.5.1.T H.y.;.2.2.1.1.2.1.#.} ).1.2.2.2.1.2.2.5.@.x.Q.#.2.2.1.;.3.>.;.T L.f.1.3.2.1.2.2.2.=.} (.<.1.2.2.;.2.1.1.@.t.",
"p.X 7 < 1 2 1 < 1 = D.*.% 3 < 3 3 l 2 & E Y.* 1 < 1 2 1 < 7 +  .s.+ 0 < 3 3 3 1 1 < F.@.O 2 1 1 3 1 2 & U U.* 3 1 1 3 3 3 2 & [ ",
"s.; a p S y F p F 8 D.:.0 a p u p F p 7 ! !.B a u S y F F a ; b.P.- F u p p F p p q D.>.0 a u u y F a m W !.B a p u p p S a 0 ..",
"4.o 1 & ; - s * * O N.o.+ * & 1 * & * # L M.+ * & * < * * * o ..u.o g % ; ; * * * % v.o.+ * * 1 * d & # L B.& * % * 1 * * * + _ ",
"D.9.q.q... .q.q.q.q.K.b.9.q.9.] ..z.b...x.G.q.q.q.0.] ..q.q.9.S.D.9.q.q. ...9.q.9.0.K.b.0.q... . .t.q.q.x.K.t.q.q.9.] q.q.q.9.Z.",
"k.T.j.p.t.(.R.R.W.W.R.W.W.E.i.V.~.g.T.T.T.T.T.T.P.| L.Q.R.E.W.R.R.R.E.g.t.(.k.T.T.T.k.T.T.P.w.S./.l.W.R.W.R.W.T.T.w.K.E.T.T.T.l.",
"% * * + U ~.d * & * * * * ; @ 9.p.@ ; * * * * * * O C.#.+ ; d d * s * # Y !.s * & * * & * g   ..s.@ 1 * d d * * * % C.@.+ * & d ",
"y p a 0 W ~.S u u p p p p a - q.a.g a y p p u i a 8 F.>.7 p u y p a i 7 Q F.B p u p p u u a < b.k.- a y y p p p p q N.-.m i u u ",
"m 4 c d R Y.d 3 3 3 m c 4 0 + 8.u.@ m l 3 c l l l % D.=.& 7 l m m c 0 * U C.s c 3 l m l l m + ..g.& 0 1 4 m 4 4 l % N.@.d 4 c 3 ",
"U E W U ( N.W E W E U U W R I z.b.K W W E L E E W R Z.{ R E E U E E E U ` N.E E E E L E E W J z.b.K W W E U R E E R n.' R W W I ",
"^.^./././.`././.^.N.A.^.!./.^./././.!.Y.N.L.~.~././._./.~.~.I.Z.F.~.~.~./._./.!.!.m.G./././.~._./.).~.!.N.K.Y.^.^.^._./.^.!.I.Z.",
"k.d G V C V V V N 1 F.,.j C V N V C V f ! ~.N C C C V C V D s t.g.f D V V m C C N 1 F.,.z D C M C C D f E ^.x C C N N N C V d X.",
"p.% p w w q w w w 8 N.:.3 y w w w w y 3 W U.3 y q w q w y u % 9.a.& a q q w w w w 8 V.&.< y w w w w y 3 R !.0 u w w q w w w 1 ..",
"s.* F w w w V p B 7 C.-.c F w w w S S l W !.m B w A w A B F s z.s.d F w u B A S S 9 V.:.3 p B w w S S c W ^.m S w B w S A S l ..",
"| . q 6 w , 7 2 2 5 c.T $ 8 6 9 7 5 q % R b.= 8 6 8 7 7 2 6 O  .| . 8 5 8 7 6 6 2 > n.Y % 8 8 8 2 7 8 % R b.= 6 2 8 8 7 6 8 O ( ",
"(.F.F.N.z.n.F.F.F.F.'.L.F.F.N.z.N.F.F.D.H.'.F.D.F.x.c.D.F.F.F.'.'.F.F.F.x.n.F.F.F.F.'.H.D.C.N.z.S.F.F.F.L.'.!.F.D.n.z.D.F.F.F.L.",
";.1.>.@.{ ).3.3.5.6.3.2.2.5.O.m.E.%.1.1.1.,.>.1.&.Y H.f.3.5.6.3.5.6.5.$.} ^.,.1.2.1.,.>.1.>.o.b.Q.<.y.2.3.3.6.2.2.@.H.y.,.1.2.,.",
"2 < 3 * E U.d < < < 1 1 < 3 + q.a.+ 9 < 1 3 1 1 3 = F.*.O 3 < 1 < < 2 & E U.d 3 < < 3 < < 0 O q.a.o 3 - 1 1 < < 1 = D.@.% 3 < 3 ",
"p p F 0 W ~.S p p p p S a a - q.a.g a p p p p p S q D.2.0 p S p F F a 7 W !.m a u p p u p a ; t.P.; a p p S a p p q D.-.m i p p ",
"d * * # K B.s & & & 1 * * ; o  .4.o ; * - g * * d . n.@.O * % k * * & + K M.& * & * 1 s & ; o  .p.o - & ; 1 * & & . n.o.+ & * - ",
" .q.q.9.c.L.q.q.t.8.] 8.q.q.8.A.D.8.q.q. . .q.q.q.0.K.m.8.q.8. . .q.q.8.x.K.q.q.t.8.] 9.q.t.9.A.D.8.t.q.]  .q.q.0.0.G.b.0.q.q.] ",
"_.k.E.T.T.T.T.T.T.w.K.E.j.k.T.k.T.T.P.s.t.(.T.T.k.R.k.T.T.E.i.Z./.g.T.T.k.k.T.k.j.w.L.Q.k.T.T.k.T.T.T.g.t.(.g.k.T.T.g.T.k.k.u.N.",
"d.o 1 d * * d * d O V.#.+ g d * * d ; # Y !.s * d * * * s ; o q.s.o 1 d * * d * * % F.#.+ ; d * d * * s I Y.s * * * * d d * + [ ",
"s.- a y p y p u p 8 D.-.0 a y u u p u 7 Q !.w u y p y p p a ; q.s.; F y u u p u p q D.-.7 p p y p p i 0 W !.w F u u u p p a 3 ..",
"i.+ m l c 7 v 3 c - V.@.* m 1 0 c c m s Y C.d c 1 c 7 c c m # 9.p.+ m 3 l m 3 c c - N.@.* m 1 0 c c 0 d E Y.d c 3 3 m l 3 m * [ ",
"t.L Q E E L W E R R Z.' I E E U E E E E ( S.E E W E U E E E L z.b.K E E E U E W E R n.' I W W U I Q E L ` n.E E E E U E E W K 7.",
"/./.!.U.n.L.^._./._.`.`._.^.I.S.!.~.).~./._./.~.!.b.A.)._./._.`.`._./.!.N.H.~.~./.~._./.~.!.M.n.(._._./.`.`.`././.M.A./.^.^.^._.",
"m V V d ! ^.n G C D D C D G s t.g.f S N N N N V c < F.1.b D C D C D D f ! ~.n V M V N m C V & b.g.f D D C C D D C 3 F.;.x V N N ",
"q w y 3 W !.0 q w w w w q y & q.a.* y w w w q w u 5 F.:.< y q w w w y 1 W F.c y q w w w w u & q.g.% u q w w w q w 8 V.&.3 w w w ",
"B w F c W ^.V u w w m S S p * q.a.d a B w A u B S 7 F.1.3 A u A A S p 3 W U.m S w u B u w F * q.T.* F u w B S w m 8 D.&.c u B w ",
"7 6 8 % P M.1 5 6 8 7 8 6 8 . ) | . 8 8 8 7 6 6 7 : n.@.$ 8 5 8 8 6 6 $ R v.- 6 7 8 8 2 6 9 O ) w.O 8 6 8 8 6 6 6 : c.T % 9 9 5 ",
"n.F.F.F.F.'.F.F.F.v.c.S.D.D.F.L.(.F.D.D.z.v.F.F.F.F.'.F.D.D.N.z.N.F.D.V.F.'.F.D.F.v.c.F.F.F.D.L.(.C.F.C.x.v.D.F.D.D.'.!.D.D.Z.z.",
"W.,.2.2.2.,.3.2.1.T H.y.;.2.2.,.,.2.1.#.} ).,.2.1.2.1.2.2.5.O.b.Q.#.2.2.1.,.2.>.,.T H.f.,.2.2.1.2.1.5.=.} ).,.1.1.2.;.1.1.1.@.t.",
"s.X 7 < 3 2 1 < 1 = D.#.% 0 < 3 3 3 2 & W Y.* 2 < 1 2 1 < 3 O q.p.+ 0 < 1 3 3 1 1 < F.@.O 2 3 < 3 1 2 % E I.* 3 1 1 3 3 3 2 * [ ",
"s.; a p F y F p F 8 D.>.0 a y p p F p m Q !.B p p S u p F a 1 q.P.; F p p p a S a q D.:.0 a p p y F a m W !.B F u p p S p a 0 ..",
"4.o 1 & ; - d s * O N.o.+ * & 1 * % * + L M.+ * & * < * * * o ..u.o ; % ; g & * & O n.o.+ * & ; * * * # U B.+ * % & 1 * * * + _ ",
"D.9.q.q.] ] q.q.9.q.K.b.0.q.0.] ..b.q.9.x.H.q.q.q.9.] 9.q.q.9.A.S...z.9. ...q.q.9.q.G.x.9.q.9. ...t.q.q.x.K.q.q.q.9.] q.q.q.9.Z.",
"T.T.T.i.t.(.T.W.W.W.R.E.W.R.i.N./.g.T.T.T.T.T.T.s.w.L.Q.R.W.W.R.W.W.R.g.t.'.g.T.T.T.l.T.T.P.w.S./.k.W.R.R.R.W.W.T.w.K.Q.T.T.T.l.",
"% * * + L !.s d * d d * * ; o q.a.o ; * * * * s * $ F.@.+ * * d * * * # Y !.s s & s d * * g   e.s.o 1 d d * * * * + D.#.# * * d ",
"y p p 0 Q !.C u y y u p p a ; q.P.d a y u p y y p 8 F.>.7 u u p p u a 7 W F.m p y u p y u a - q.k.; a y u p a u u 8 S.-.7 i y p ",
"m m B d E !.v 7 0 w m M m w & 9.u.s u m m m m 0 m , C.,.* w 0 m m m w d E C.g m 7 B m m m V & 9.g.* w m 0 m m 0 m 2 S.*.d B m 7 ",
"J J L t / M.J H J J J J J H e 0.r.e J J H J J J J H v.^ r K J J J K L r R N.J K J J H J J K e 7.r.e J J J J J H H H v.~ r K J J "
};
