/* XPM */
static char *_31dc5578ffc43ad8174f367f3c32398[] = {
/* columns rows colors chars-per-pixel */
"64 64 144 2 ",
"   c #CC6D5F",
".  c #C7715F",
"X  c #CE6E60",
"o  c #D46E62",
"O  c #C57663",
"+  c #CB7462",
"@  c #C57967",
"#  c #CD7965",
"$  c #CD7E6C",
"%  c #D47464",
"&  c #D97566",
"*  c #D37A66",
"=  c #D97867",
"-  c #D57E69",
";  c #DA7D69",
":  c #BF887C",
">  c #CE806E",
",  c #D5816D",
"<  c #DB826C",
"1  c #C48374",
"2  c #CE8371",
"3  c #C48779",
"4  c #C58B7E",
"5  c #CA8B7D",
"6  c #D38573",
"7  c #DB8671",
"8  c #D68977",
"9  c #DD8975",
"0  c #D68B7A",
"q  c #DB8D7B",
"w  c #DE907F",
"e  c #E2836E",
"r  c #E48770",
"t  c #E28B75",
"y  c #EA8C75",
"u  c #E18D79",
"i  c #E4917D",
"p  c #E9937E",
"a  c #F1957D",
"s  c #BD9086",
"d  c #C68E82",
"f  c #CA8E81",
"g  c #C79286",
"h  c #CA9285",
"j  c #C4948A",
"k  c #CC958A",
"l  c #CC998E",
"z  c #DD9281",
"x  c #D1978B",
"c  c #D1998D",
"v  c #DA9A8C",
"b  c #C39E96",
"n  c #CD9B91",
"m  c #D29D92",
"M  c #E29381",
"N  c #EB9681",
"B  c #E29887",
"V  c #EC9984",
"C  c #E49A8A",
"Z  c #F19780",
"A  c #F09B84",
"S  c #E09E90",
"D  c #CBA69F",
"F  c #D3A095",
"G  c #D5A399",
"H  c #DAA79C",
"J  c #EBA08F",
"K  c #E4A292",
"L  c #ECA493",
"P  c #EDAB9C",
"I  c #F1A795",
"U  c #F2A997",
"Y  c #F5AD9C",
"T  c #F9AF9C",
"R  c #F7B09F",
"E  c #FAB09F",
"W  c #C3A6A0",
"Q  c #C7A8A2",
"!  c #CCACA5",
"~  c #CEAFA8",
"^  c #D5ADA4",
"/  c #D9AEA4",
"(  c #CDB1AB",
")  c #DEB0A6",
"_  c #D3B3AC",
"`  c #DAB6AE",
"'  c #CEB9B4",
"]  c #CFBFBB",
"[  c #D4B7B1",
"{  c #D6BAB4",
"}  c #D9BDB6",
"|  c #DABEB8",
" . c #EEAFA0",
".. c #E0B1A7",
"X. c #E4B5AB",
"o. c #E3B9AF",
"O. c #EEB9AD",
"+. c #F6B3A2",
"@. c #FBB5A4",
"#. c #FDB8A7",
"$. c #FEBBAA",
"%. c #E3BAB2",
"&. c #EBBDB3",
"*. c #D3C2BE",
"=. c #E5C0B7",
"-. c #E2C2BB",
";. c #F5C2B7",
":. c #FDC5B7",
">. c #F4C6BB",
",. c #FAC7BB",
"<. c #F4C8BE",
"1. c #FCC9BD",
"2. c #D7C6C1",
"3. c #D9C6C1",
"4. c #DDCAC5",
"5. c #DECEC9",
"6. c #DED0CC",
"7. c #E3CAC4",
"8. c #EACDC6",
"9. c #E6CFC9",
"0. c #ECCFC9",
"q. c #FDCDC2",
"w. c #E4D1CC",
"e. c #EBD4CE",
"r. c #FFD2C6",
"t. c #F3D4CD",
"y. c #FFD5C9",
"u. c #FFDACD",
"i. c #E2D4D0",
"p. c #ECD7D1",
"a. c #E6D9D5",
"s. c #EFD9D2",
"d. c #EDDFDA",
"f. c #F2D7D0",
"g. c #F2DAD3",
"h. c #FCDCD4",
"j. c #F3DED9",
"k. c #FCDFD8",
"l. c #FFE0D7",
"z. c #F4E1DC",
"x. c #FEE3DB",
"c. c #FFE8DF",
"v. c #FCE7E1",
"b. c #FEEAE3",
/* pixels */
"c.c.c.x.c.v.c.x.x.e.d.k.x.x.x.c.c.x.x.h.e.x.x.c.x.c.c.c.x.c.f.i.x.x.x.x.x.c.x.x.x.8.d.c.x.c.c.c.c.c.x.l.e.z.x.x.x.x.x.x.x.x.u.w.",
"q.e N p p p p p y - s.T r N M y p N u e m k.p M p p p p p N = | q.e N p u p Z u i , g.R t p p i p p p r l h.y p p p p p p w < ` ",
",.# 0 8 0 6 q 0 q 2 w.P 6 q 8 8 0 q 8 < m g.9 8 6 q 6 8 8 q - { q.* z 8 8 0 q 8 0 6 p.P , 0 0 8 8 0 0 7 n g.9 q 8 8 8 9 0 8 , _ ",
"1.< M q u 0 p q i 6 p. .r i q q q i M 9 m h.u u q u 0 M M M < | q.; M q u q u M i , p.P < w w 9 q p w t m h.u M q q q i u i 9 _ ",
"X.+ 6 $ 6 2 6 $ , @ 4.v + 2 2 6 6 $ 6 + j 7.# 2 , 6 6 > , > + ( %.X - $ 6 6 $ - > @ 3.v # 6 6 8 > , > # j 7.# > $ 2 6 > 2 6 + Q ",
"z.p.s.i.2.7.g.g.p.g.b.z.s.s.w.*.w.g.s.p.j.b.g.p.p.4.2.s.g.s.g.b.v.g.j.i.2.5.s.s.s.s.b.z.p.p.9.*.w.s.g.g.z.b.j.s.p.7.2.e.g.p.p.x.",
"+.@.+.L / c.#.$.#.:.$.$.$.#.L 7.u.T #.@.@.+.@.+.P v j.1.#.$.$.$.#.$.$.+...x.#.@.+.@.R R R R B -.l.@.$.$.$.$.$.$.@.K j.,.R @.@.@.",
"- - 6 ; l h.< - - - , , , , & } >.& 6 - - 6 - < 7 # s.L # - , , 6 - - = c f.7 - , , 7 , , 8 o } 1.% , , < , - - , - e.L * , , 6 ",
"q q M 9 m k.M q q w w M z w , } <.< z q q z q z z 2 g.+.6 z w q z z z 9 m g.u w w q w w w i , *.r.< z w w z z w w 6 p.P q q q q ",
"9 - < = d t.< * - - < < < , X ( &.o , < < < ; - < . 7.L % - - < < ; - % h 8.= ; - < < , ; < o ~ ;.o , ; , < < ; - + 4.B = - < , ",
"_ } } { 2.d.} } } _ ~ { { { ` w.p.{ } | ( ~ } } } { d.7.[ | { ~ ` | } [ 2.d.} { *.( ! { { *.{ w.p.{ } } _ ^ } } { { d.4.{ } { ! ",
"x.q.y.y.y.y.y.y.r.&.d.u.r.y.r.r.q.y.y.1.-.b.r.y.y.y.r.y.y.y.;.w.x.1.y.y.r.r.y.r.r.&.z.u.y.y.y.r.y.y.y.1.*.v.q.r.r.r.r.r.r.r.;.9.",
"1.o < < < < < < ; # e.U * < < < < r ; = x h.e < < < < < < < o { 1.o 9 < < < e < ; * g.I % < < < < < < = k h.e < < < < < < , & ^ ",
"1., z q q 0 q q z 2 p.P 9 z 8 q q q q 9 m h.0 q 0 w 0 q q z < } q., z 8 q 0 q q w 6 p.P 6 0 q q q w w 9 n g.q w q q q q q w 6 ` ",
";.* u < t 6 t 9 t - e.L ; 9 7 9 9 9 y ; c t.< t < t 7 9 t 9 = } >.= u 7 9 t 9 t 9 , 8.J < 9 9 9 9 y 7 < c u.< 9 , 9 9 t 9 t < ^ ",
"-.g n n c d m l l j 6.^ g n l k k n n k Q w.l n n c g l c l f ] -.d l l l h l l l j 6.^ k c l l g l l k Q w.l k l l h l l n g ' ",
"x.x.k.f.7.j.x.c.x.c.b.c.c.x.t.w.x.k.k.x.x.v.x.h.h.7.a.x.x.c.c.b.v.c.x.h.9.d.l.x.x.k.c.c.k.k.8.6.x.x.c.x.c.b.c.c.h.0.a.k.x.k.x.x.",
"t p p < m k.Z V N A V N V N ; -.q.y M p p y p p u $ g.@.p N V A N V V t m h.a M y p i y p p * -.r.y V N A N V N p 7 s.T y p p p ",
"6 0 0 7 m h.t 6 6 0 8 8 6 8 - | <.; 8 9 0 0 6 8 q $ s. .* 8 6 0 9 8 8 7 m g.9 8 8 8 q 8 8 q * } q.% 8 8 0 0 0 6 9 6 e.P 6 8 6 q ",
"M q i t n k.M q u q q i i z - | <.e z q u z u q p > s.+.7 q q u i w q r m f.y w 0 q q q u M < | y.< z q q u i z q 2 w.P t q u q ",
"6 $ 2 * s 8., $ > 2 6 2 > 2 . ( o.+ 2 6 6 6 - $ 6 O 4.K + > > 6 6 > > + s 7.- $ 6 6 6 $ $ 6 + ( &.+ 2 $ 6 6 $ $ $ O 3.v # 2 6 > ",
"w.g.p.s.j.b.s.s.s.7.3.p.s.p.p.z.x.p.p.s.2.4.p.s.s.s.v.j.p.g.w.*.w.p.p.p.j.b.s.p.s.4.2.e.p.f.p.z.v.p.s.e.2.5.p.s.p.s.v.j.e.s.9.*.",
"h.T #.#.#.@.#.@.@.v j.:.Y @.@.+.+.#.+.U / v.#.#.@.#.@.#.@.#.K 7.u.Y #.@.@.R $.@.+.v z.1.@.#.#.@.@.#.#.Y / c.T @.@.@.+.@.#.+.L -.",
",.  6 - , , , , , # e.U * 6 , , - 7 , = m h.- - , , - , , 6 % { ,.+ 9 , , , < , , , t.L + 6 , , , , 6 = k g.< < , , , 7 , , * _ ",
"1.< z q w 0 M w i 6 p. .9 z w q z M z q m k.u z q z 0 M w z < } q.< B q q w z M z 8 p. .9 z w q q M w u n h.u M q z q w z z 7 ` ",
"O.o < - < - < < ; + 7.C % - - < ; - ; & g 8.= < - ; - < ; < % ` &.o < % , < - ; ; + 4.B % < - < , < - = g t.* < * - < ; < < % D ",
"e.{ | } _ ! } } } { d.7.{ } { ^ ` | | } 2.j.} } | _ ! { } } { i.s.{ | } _ ( } } } { d.7.{ | { ! ` } } { 3.j.} } | [ ! { | | { 6.",
"r.r.r.>.-.b.y.h.u.u.u.h.u.u.;.e.x.q.y.r.r.r.y.r.q.o.z.h.u.u.u.u.u.u.u.q.-.x.r.y.r.r.r.y.r.q.&.w.c.y.u.u.u.u.u.u.r.&.j.h.r.r.r.r.",
"* ; < = k h.r ; , < < < < < o } <.& < ; ; < - ; < + f.U * < ; < < < < = c h.e ; ; < < - < < X } 1.& < < < < < < < # e.L = , ; < ",
"q q q 9 m h.u q q q q w w 0 , *.<.< q 0 q q q 0 q 2 p.+.6 q q q q w 0 9 m f.q w 8 q q q q w ; } q., q q q q w 0 q 2 e.P 9 0 q w ",
"9 9 t e k h.r 6 7 7 t t 7 q % [ ;.= q 9 9 t 9 9 t # e.Y * 9 9 t t 9 9 ; k e.e t < 9 9 9 9 t = { 1.& 9 7 9 t t 9 9 # 9.L < 7 9 7 ",
"l l l k W w.c l l l k l l l g { -.g m c k k l l n j 6.) g n l h k n l g D w.l l m l h l l n g *.-.j n l l h l l l j 5./ k n m g ",
"x.h.x.x.x.c.x.x.x.9.a.h.h.l.l.x.x.x.h.h.7.z.k.x.k.x.c.c.l.x.t.7.z.h.x.h.x.c.k.k.h.9.a.x.l.x.x.x.c.x.x.h.7.d.h.h.x.h.x.x.h.x.e.7.",
"r.r V N p p p p p , p.@.t V p p p V p e m x.p N N p p N p N e *.r.e V N p y N M p , g.@.t N N p p p N r m l.p p N N p p N p e ` ",
",.* q 6 q 6 9 0 9 $ p.P , q 8 8 8 0 8 6 m h.7 6 6 q 8 8 9 8 ; { 1.* w 6 8 8 q 9 8 6 e.P - 8 9 8 8 0 8 7 l g.9 q 9 8 8 q 0 8 , _ ",
"1., M q q q M q M 6 p.P 9 i q q w y M r m g.u w q u 8 i M z < *.q.< B 9 q z u u p 6 p.P 9 q q q q p w t m h.u M q q q u i i 9 _ ",
"X.+ 6 $ 8 > 6 > $ @ 4.v + > > 6 6 > 6 # j 7.# 6 - 6 2 6 , > . ( %.X $ $ 6 6 $ , > @ 4.c O 6 , 6 > , $ # g 7.$ $ $ 2 6 $ $ 6 + Q ",
"x.p.s.i.2.7.p.g.g.g.b.z.j.s.w.*.w.p.s.s.j.v.s.s.p.4.2.p.g.g.g.v.v.f.d.s.2.5.s.s.p.p.b.z.p.p.w.*.w.g.j.g.z.b.j.s.p.7.2.p.g.p.p.x.",
"+.@.+.L / c.#.$.#.$.$.$.$.$.J 8.u.T @.@.@.T +.@.P v j.,.$.$.$.$.#.$.$.Y ..x.@.@.@.@.R +.@.R B 7.h.@.$.#.$.#.$.$.@.K j.:.+.@.@.@.",
"* - 6 - l h.< - , , , , - , % } >.& 6 - , 7 , , 7 + s.U + , , , , , - = c f.9 - , , < , , 7 % o.1.% 6 - < , , - < $ e.L * , , 6 ",
"z q z 9 n x.p q q q z M w z , } <.< z q z w q z M 2 p.@.6 z w q z M z 9 F g.i i 0 q w q w w , *.r.< w w w w w w w 6 p.P q q w w ",
"7 ; ; = d t.< # - - 9 < ; -   ( &.% < ; , < - ; < . 7.L % , , < < ; - % 4 8.= , < , < < - < o ( ;.o , ; , < < ; - + 4.B & - , - ",
"_ } } } 2.d.| } | _ ! { } { { w.p.[ | | ( ~ } } } { d.7.{ } { ! _ } { { *.z.} { *._ ! { } } { w.p.{ } } _ ~ { } { { d.7.[ } { ! ",
"c.q.y.y.y.y.y.y.y.&.d.u.r.r.r.r.q.y.y.,.-.b.r.y.y.y.r.y.r.y.;.w.x.q.y.r.r.r.y.r.r.&.z.u.y.y.y.r.y.y.u.1.*.x.r.r.r.r.q.y.y.r.;.9.",
"1.o 7 < < < < < ; # e.I & < ; < ; < ; = c h.; ; < < , < < < o { 1.o 9 ; < < e < ; * f.I % < < , < < < = k h.e < < < < < < , % ^ ",
",.- z 0 q 8 z q z 2 p.P 9 z q 0 q z z 9 m h.u q 0 q 8 w q w ; } q.< B 0 0 q w q w 6 p.P 6 q w q q w q 9 n h.q w q 0 q q w w 6 ` ",
";.= t 7 9 7 t 9 t - e.L < 9 7 9 t 9 t ; c t.< t 9 r 6 t t t = } >.= u , 9 9 9 t 7 , 8.L < 9 9 9 9 y 9 < c t.< 9 < 7 9 t t t < ^ ",
"-.d m n c g c l l j 6.^ g l l k k n m k Q w.l n n c h l l n g ] -.d n l k k l l l j 6.^ g m l k g l l k Q w.l l l l k l l l g ' ",
"x.k.k.t.7.z.x.c.x.c.b.b.c.x.t.w.k.k.x.x.x.x.x.h.h.7.a.x.x.c.x.b.b.x.x.h.7.z.l.x.l.h.c.x.x.g.e.7.x.x.c.x.v.b.c.c.k.8.a.k.k.x.k.x.",
"u N p e m x.p A N V V N V V e *.q.y M p u p p p t - g.@.p V V V p V V t G h.p p p p p i p p & -.r.y V N A Z V N p 7 s.T y M p p ",
"8 8 q 6 n h.q 6 6 9 8 8 8 8 = } <.= 0 8 0 0 8 0 q $ s. .* 8 6 8 q 8 8 < m f.9 q 6 8 q 8 9 0 - } q.* 8 8 8 0 0 6 9 2 e.P < 8 8 0 ",
"i q u t l l.p q q u q i w i ; } >.r z t u u q u M $ s.@.9 u q q w i w 9 c g.t i q q u q w M , | y.; z q q u M z q 6 e.P 9 q u q ",
"6 $ > * s 8., > $ 2 7 6 > > . ( %.+ 2 6 6 6 > > 6 O 4.S + 2 2 6 , > > # j 4.* > , 6 6 > > 6 . ( &.+ $ $ 6 6 - $ $ O 2.v # 6 6 > ",
"w.s.g.e.j.b.s.p.f.4.2.i.e.p.p.z.x.e.s.i.*.4.s.e.s.s.b.j.p.g.9.2.w.p.p.p.j.b.p.p.p.4.2.p.g.p.s.z.v.p.s.s.2.5.i.s.p.s.b.g.p.p.w.*.",
"h.Y #.$.#.@.$.@.@.v j.:.T #.@.+.@.@.+.U ) c.@.$.@.#.@.#.@.#.C 7.u.U #.@.@.R $.+.R v z.1.E #.$.+.@.#.#.Y / x.E @.@.@.@.@.@.+.L -.",
",.o 6 , , , , - 7 # i.L * 9 , , 6 7 , * c h.< - - 6 - , , 6 % } 1.% 8 , , , < , < , e.L + , , , - 6 - ; l f.< 7 , 6 , 7 6 , - ^ ",
"1.< z q w q M w M 6 s.P 9 z q w w i z 9 F g.w w q w q w z z < | q., B 0 q w M w w 8 p.P 9 z w w q i w y n h.q M q q q w w z 7 ` ",
"O.X 9 - < , < ; ; + 7.C & , * , < - < & g 0.= ; - < , < ; - % ` &.o < - < < - < < + 4.B % < - < , < , = k 0.= < - - < ; < < % D ",
"e.{ } { _ ! } } | { d.7.{ } { ~ _ } | { 4.d.} } } ` ! { | } { i.s.{ } } _ ~ } } } { d.7.{ | { ! _ *.*.{ 4.s.} } } [ ! { } | { 6.",
"r.r.r.;.-.b.y.h.u.u.u.h.u.u.;.w.x.r.y.r.r.r.y.r.<.o.z.h.u.u.u.u.u.u.u.1.-.v.r.r.r.r.r.r.y.q.&.w.x.y.u.u.u.u.u.u.r.&.j.h.r.r.y.r.",
"* - < = k h.e < ; < < < < , = } ,.& < < - < ; < < + p.U = < < < < < < = x h.e ; - < < - < < o } 1.o e < < < < < < * s.L = , ; < ",
"q q q 9 n h.p 8 q 0 q w q q - } <.< w 0 q q q q w 2 p.R 6 w 8 q q q q 9 m g.q q 0 q q q q w - } r., w q q w w 0 q 2 e.P 9 0 q q ",
"u 9 q r l h.y 9 9 9 t u t q = { >.; q t 9 t 9 q y $ e.E ; 9 q t u q q < l t.r u 9 u q 9 9 p ; } 1.; q 7 9 u u q 9 $ w.L 9 9 u 9 ",
"h f 5 5 b 9.f 4 f d h f 5 d 1 ' %.1 h f 4 h d 5 h : 4.H 3 f 4 f f 5 f 3 b 7.f 5 5 g 5 5 5 h 1 ' =.1 g 5 5 h 5 5 4 4 3.G 3 f f 4 "
};
