/* XPM */
static char *e635e11b6d0245148e81364d71041bc9[] = {
/* columns rows colors chars-per-pixel */
"64 64 106 2 ",
"   c #6D2F05",
".  c #7C2400",
"X  c #752B00",
"o  c #7C2C00",
"O  c #6F3005",
"+  c #753102",
"@  c #7C3301",
"#  c #7E3805",
"$  c #76350B",
"%  c #79370A",
"&  c #77380F",
"*  c #7D390B",
"=  c #6D3A1C",
"-  c #753711",
";  c #763912",
":  c #7B3C14",
">  c #703D1D",
",  c #7C3E19",
"<  c #6C3F24",
"1  c #703F22",
"2  c #7D401B",
"3  c #6E4125",
"4  c #65432D",
"5  c #6D452B",
"6  c #6E482F",
"7  c #704125",
"8  c #7D4523",
"9  c #71462B",
"0  c #7A4628",
"q  c #72492F",
"w  c #7D4A2A",
"e  c #664C36",
"r  c #6E4930",
"t  c #714B31",
"y  c #66533E",
"u  c #6A553E",
"i  c #755035",
"p  c #73553C",
"a  c #79583E",
"s  c #675640",
"d  c #6A5741",
"f  c #655944",
"g  c #6C5B45",
"h  c #665D49",
"j  c #6D5F48",
"k  c #735D44",
"l  c #7C5C42",
"z  c #66624D",
"x  c #6B634D",
"c  c #72644D",
"v  c #7F6348",
"b  c #6C6650",
"n  c #6C6B55",
"m  c #6D6F5A",
"M  c #716751",
"N  c #746D55",
"B  c #7B6E54",
"V  c #6E715B",
"C  c #777057",
"Z  c #7C7056",
"A  c #73735B",
"S  c #7A745B",
"D  c #7C785F",
"F  c #7D7960",
"G  c #812600",
"H  c #812D00",
"J  c #813400",
"K  c #883700",
"L  c #823904",
"P  c #893D02",
"I  c #833D0C",
"U  c #813E14",
"Y  c #803F19",
"T  c #8A4007",
"R  c #87400E",
"E  c #88410F",
"W  c #854113",
"Q  c #884212",
"!  c #81411A",
"~  c #814522",
"^  c #854A25",
"/  c #834D2B",
"(  c #894F2A",
")  c #84502F",
"_  c #8B522E",
"`  c #814F30",
"'  c #855232",
"]  c #8B5532",
"[  c #8D5935",
"{  c #805A3D",
"}  c #8D5F3E",
"|  c #905933",
" . c #835F42",
".. c #846246",
"X. c #8A6445",
"o. c #856649",
"O. c #8A6749",
"+. c #87684A",
"@. c #8B6A4B",
"#. c #916C4B",
"$. c #806F54",
"%. c #8A6E50",
"&. c #827257",
"*. c #857459",
"=. c #88765A",
"-. c #8A785A",
/* pixels */
"*.*.=.*.*.*.=.*.*.M A &.*.*.*.*.*.=.*.&.M S *.*.*.*.=.=.=.=.$.n S %.*.*.*.=.%.*.*.N C *.*.*.*.*.-.*.*.*.M S *.*.*.*.=.%.*.*.B n ",
"O.J W I R I R R I @ N ) J W I I I R I J q &.P I R R I I I U H j O.J W I I I R I L @ C _ L W R I R R W J q &.L I T I I I R I J k ",
"..X , : : : : : : $ N ' @ , : : : : , @ t Z L : : : : : : : @ j o.X Y : : : , : : * N ) + : * : : : : @ 6 C % , : : : : : , @ d ",
"X.@ Y : * : W : W % N ' L Y * : U : 2 L t Z I , : : : U Y Y @ j o.@ ! : : : U : : & N ) # 2 : : : W , L q Z I W : : : U , W J d ",
"a X : $ & $ % $ $ + b w X $ $ & $ $ % X 6 c @ $ % % & % $ $ X f l X $ $ % % $ $ $ O x 0 X - $ $ $ $ $ X 5 M @ $ $ % % % $ % X y ",
"S N N N z b C C C C D S C C N z n C C N C D N N N x z C C C C D S C N N x n N N C C D A N N M b N N C C S F C C N b b N N N C S ",
"' ] ' ^ p *.] [ [ [ ] ] [ ] ^ c @._ ] ] ' _ ' ] ) 0 A } | [ [ ] [ [ ] _ p *._ ] ] ] _ ' ] ' 8 c @._ [ [ | ] [ [ ] w C  ._ ' ] _ ",
"@ @ % o 5 &.@ @ + @ @ @ @ % o j ..o % + @ # @ @ @ + N ( X @ @ @ @ @ % o q B J @ + @ # @ @ * o k o.. # + @ @ @ + @ @ N / @ @ + # ",
", , , * t $.U , , , , Y 2 , @ j  .L , , , , , Y , ; C ' % , , , , 2 , # t N I , , , Y : Y , @ x +.@ , , , , , , , ; N ` I , , , ",
"J o @ H < $.J X @ @ L @ @ @ . f l . # o @ @ o @ J X n ^ . @ @ @ @ @ @ o < N H @ @ @ @ @ @ @ . d  .. @ @ @ J @ @ X X b 8 o @ @ @ ",
"g x j j b A j j j f u h j j g n N h j j d d j j j g A c g x j u f j j f b A j j j f d g j j g m N h j j d d j j j x V c f j g s ",
"=.X.@.@.@.O.@.@.O.l A @.O.O.@.O.O.@.+.X.c D O.@.@.@.@.@.O.O. .n *.O.@.@.O.O.O.O.O.l A %.O.@.@.O.@.@.O.X.c D O.O.O.O.O.O.@.+. .M ",
"X.. @ J @ @ @ @ J X M ( o J @ @ @ J @ o 9 $.J @ @ @ @ J @ @ . j  .G @ J @ @ J @ J X N ( o @ @ @ J @ @ H 9 B J J @ @ @ J J @ o d ",
"..@ , : , , , : , ; N ` % , , , , , , # q B : , , , , , , 2 @ j o.@ 2 , , , , , , : C w $ , , : , , , I r B U , : , , , , , * k ",
" .o * @ L % L @ L @ M / @ # @ # L # I J q B J # @ L % L L # o j  .H U @ # L # L J + M / @ L # # # L * H 9 B J I @ # # L J I H u ",
"c 5 t r 9 5 t r r 5 n p 5 r r 9 5 r 5 5 u M q r t 6 3 5 r r 3 z c < r 5 5 9 5 r q r n p 5 q r 9 5 t 5 9 u n 5 5 r 5 9 5 r 5 9 h ",
"*.&.&.B x A *.*.&.*.-.*.=.*.B n C *.&.&.&.=.&.&.Z M A *.*.*.*.-.-.*.*.$.b C &.&.&.*.*.&.&.$.B n S *.*.*.=.-.*.*.&.N V &.&.&.&.*.",
"I I U J q &.T Q W W Q W W W J c X.K W I I I I I L + C _ T W Q Q W Q W L q &.T I I I I I I U o j O.K ! W Q W Q W I @ N ' L W R I ",
": : : # r &.I : * : : : : , @ k v o , : : : : : : $ C ' + : & * : : : @ q C # , : : : : : , @ j +.X , * * ; : : : $ N / @ : : * ",
"U : , J t Z I : U : : 2 , , X j v J , : * U : : : $ C ] @ 2 : 2 U , , # q Z L 2 : : U : : Y @ j O.J , : : W : : U % M ' L , : : ",
"$ $ & + 4 M @ $ $ $ * $ $ - X f l X $ % & $ $ $ % O b w X $ $ * $ $ $ X 4 M @ $ % * & $ $ $ X f l X $ $ & * $ $ $ O x 0 + $ * $ ",
"N N C C C D N N C b b M N N M A S N N N x n N N C C D C A C n x M C N C A D C N N x z N C N N S D N N N z b N C N C F A N N n z ",
"@._ ] [ ] ] ] ] ] w C X._ ] ] _ ] ] ' ^ p *._ ] ] ] ] ] ] ] ^ x @._ ] ' ] _ ] ' ) w S } _ ] [ _ ] ] ] _ p *._ _ ] ] _ _ ] ' ^ c ",
" .X % @ @ @ @ @ @ + M / X # @ % @ # % @ q &.@ @ @ @ + @ @ % . k v o * @ @ @ # @ @ @ N / X % @ @ @ @ % o 5 Z @ % @ @ @ # @ % o u ",
"..@ 2 , , : ! , ! ; N ' * , , , , , , I t B U , , Y , , , 2 @ x o.@ ! , 2 2 , Y Y : N ' * , , , , ! , I t B U ! , , , , , , # d ",
"{ . J @ J @ J o @ o M 8 o @ o # @ @ @ o 9 M H @ o @ @ @ J @ . g a . J X @ @ @ @ J X b 8 o @ o @ @ J X o 9 B o @ X @ @ @ J @ o u ",
"N h j j d d j j j x V M j j j d g j j g b A j j k g u j j j j n C j x j f d j k j h V c g j h d d c c j x A j j x g u x j j g n ",
"O.O.+. .j D #.@.@.#.#.@.#.@. .M *.O.@.O.O.O.@.O.o.k A @.#.@.@.#.@.#.@.O.c S O.O.@.O.O.+.O.+. .n *.O.@.@.#.@.#.@.O.a A %.O.O.@.O.",
"@ o J o 9 $.J J @ J @ @ @ @ . j  .G @ @ @ @ o o @ X N ( H @ @ J @ @ @ H 9 $.J J X J J @ @ @ . k X.. J @ @ @ @ @ @ @ N ( H @ o @ ",
", , , * r &., , , , , , , , @ j v J , , , , , , , ; N ' % , , , , , , * t B I , , , , , , , @ j +.@ , : , , : , , ; M w I , , , ",
"L L * J 5 B L @ @ @ I L # # o j l H I @ L I # # L + N _ o # @ L L L * H 9 N J L @ # * L L I o g ..o * # # I L # @ + n ^ H # L # ",
"5 r 5 9 s M q r q 6 7 6 r r < z c 5 r 9 5 1 6 6 q 4 b p 5 r r 9 5 r r 5 d M 5 r q q < r 5 r 3 z c 5 r 6 9 5 r 5 r 5 n p 5 r r 5 ",
"S *.&.Z *.*.*.Z *.M m S Z &.Z *.*.&.&.$.n A &.&.&.*.=.=.&.*.B n S $.&.&.&.=.*.$.Z M A *.&.&.&.*.*.&.&.$.b C &.Z &.&.*.*.&.Z B n ",
"X.L W W R R R W I @ N ] L W R I I E U L q &.P W I Q I I U U H j O.J Q I U I Q I I @ C _ L W W I E W W L q &.P W W I I I R W J p ",
"..X , * : ; : * : $ N w @ , * : : : : @ q B # : : : & : : : @ j o.X , : & : : : : * N ) + : : : : : : @ 6 C % , : : : : : , @ d ",
"O.J ! : : : W : Y * N ) # W 2 : U U Y L t Z L 2 : U : U Y Y J j o.J ! : : U : U : & N ) # Y : * : Y , L q Z I W : : * Y : W L d ",
"a X : $ & $ % $ $ O x 0 X & $ & % $ % X 6 b + $ + : $ $ % $ X f l X - $ % $ $ $ $ O x 0 X - $ $ % % $ X 5 b @ $ + $ $ $ $ % X y ",
"C N N M x b C C B C D S N C M x n N C N A D C N N b x N N N N D F N Z M b n Z M C N D A C N M b n B C C S F C C C n x N C N C S ",
"' ] ] ^ p *.| [ ] [ | ] | [ ^ c @._ ] ] ] _ ] ' ) 0 C X.] [ [ | ] [ [ ( p &.] ] ] ] _ ] ] ' 8 c @._ [ [ | ] [ [ ' w C } _ _ ' _ ",
"@ @ % @ 5 &.# + @ @ @ # X % o j ..o % @ @ @ @ @ @ X N ( o % @ @ @ @ $ J 9 B J @ + @ # + @ # o k o.. # @ @ @ @ + @ @ N / @ $ @ # ",
", , 2 I r $.U , , , , 2 2 2 @ x v @ 2 , , Y , , Y ; N ' # 2 , Y , , , # t C I 2 , , , , Y , @ x +.@ , , , , , , , ; N ` I , , , ",
"J X @ H < B J X o @ L @ @ @ . d l . @ @ @ @ o @ J X M ^ X @ X J @ @ # o 7 M H @ @ @ @ @ @ @ . d  .. @ @ @ J @ @ @ X b ~ o X J @ ",
"g j j j x A x j j f d f j g g m N j j j f d x j j h A M j j h d f j h g x A j x j g u g j j j n N h j j d d j j h h A M g j j y ",
"=.O.O.@.@.O.@.O.O.l A %.O.O.O.O.O.O.+...c *.X.@.@.O.@.O.@.@. .n *.X.@.O.O.O.O.O.O.l A %.O.@.@.O.@.@.O.X.c D O.O.O.@.O.O.O.+...M ",
"X.. @ @ J @ @ @ @ X M ( o @ @ @ @ J @ o 0 &.J @ @ J @ @ @ @ . j  .G # @ @ @ J @ @ X N ^ o @ @ @ J @ @ H 9 B J J J @ @ @ @ @ o d ",
"..@ , , , , Y , , - N ' * , : , , , , # r C : , , , : , , , @ x o.@ 2 , , , , , , : N ' $ , , , , , , I r B U , : , : , , , # k ",
" .o I @ L % J L L @ N ^ H I # # L # I H q N J L @ L % L L # o k  .G U @ J I @ L J + M / @ L @ * # L * H 9 B J I @ # I # @ I o u ",
"k 5 t 6 9 5 q 6 5 5 n u 5 6 5 9 9 r r 9 u M 5 q r q 5 9 r r 3 z M < r 5 5 9 6 6 q 5 n p 5 t t 9 5 t 5 9 u n 5 5 r 5 9 5 t 9 9 h ",
"*.&.S B x A *.*.*.-.-.*.*.*.B n S $.&.*.*.*.*.&.B c V &.*.*.*.-.=.*.*.&.n C &.&.&.&.*.*.&.&.c n S *.*.*.=.-.*.*.&.N V &.&.&.&.*.",
"I I I J q *.T Q W Q W W Q W J c X.K Y I I I I I I @ N ] P W Q W W W W L q Z T R I I I I I U H c O.K ! W Q W Q W I @ C ' L U T I ",
"& : : # 6 Z * ; ; * : : : , X c v @ : : : : : & : $ N ' + , * : : : : @ q B # : ; , : * : , o j +.X , * * ; : : : $ N / @ : : : ",
"U Y , L 6 *.R : : : : W : , o j v J , , I : : U Y % N ] @ , , : W : 2 J q C L 2 : : U : U 2 @ x O.J , : : W : : U % M ' L : : : ",
"% $ $ @ 4 M + $ $ $ & $ $ $ X f k o $ $ $ % % $ %   n w X & & & $ % $ X 4 M @ $ % * & $ $ $ X f l X $ $ & * $ $ $ O b 0 + $ * $ ",
"M N C N C S C C C n z N N N N S S N N N b b N N N N D A N C M b n N C N A D C N N b z N N C N S D N N N z b N C N C D C N N n z ",
"%.( [ ] [ _ ] ] ] w C } _ _ ] _ _ ] ' ( p *.] ] ] ] ] ] ] ] w x @.( ] ' ] _ ] ' _ w S } _ ] ] ] ] ] ] _ p *._ _ _ ' _ _ ] ] ^ c ",
"X.. $ @ @ % @ @ @ X N ( X % @ $ # @ % o t B @ @ @ @ @ @ @ # o g o.o * @ @ @ # @ @ + N / X % @ @ @ @ % o 5 Z @ % @ @ % @ @ % o u ",
"..@ ~ , , : Y Y 2 ; C ' * 2 , , , Y , I t B Y , , , : Y Y 2 @ j o.@ ! , 2 2 Y , Y & N ' # , , , , Y , I t B U Y 2 2 2 2 2 , # d ",
"{ . J X @ @ J @ @ X x ^ o @ @ @ J @ @ H 9 M H o o @ @ @ @ @ . g l . @ o @ @ @ @ @ X M 8 . # @ @ X @ @ H 7 B o @ + @ @ @ @ @ . u ",
"N g j j d d j j j x A c j x f d f j j j b A j j j g d j j j k n N j x j f d j k x j A M h j j d g c c g x A c j j g u g k x j n ",
"+.O.@. .j D #.@.@.#.#.@.#.@...M &.X.@.O.O.O.@.X.o.l A %.#.@.@.#.@.@.@.O.c S O.O.O.O.@.O.O.+.l M =.X.%.@.#.@.@.@.O.l A @.O.O.O.@.",
"@ o @ o 9 $.J @ o J @ @ @ @ . k ..G @ @ @ @ o @ @ X N ( o @ @ J @ @ @ H 9 $.J J X J J X @ @ . k ... J @ J @ @ @ @ X N ( H @ @ @ ",
", , , # 6 &.U : , , : , , , @ j v # , , : , , , , - N ' % , : , , , , # t B I , : , , , , , @ j O.@ , , , , , : , ; N w # , , , ",
"I * U J 9 &.L : # * I I I : o j  .H : I I * I * I + M _ o U * I I I : J 9 N J U * I I * * U H j O.J : # * I I * * + M ( J : I % ",
"7 3 7 > e M 7 < 7 < 7 < 1 < = h k = 1 7 < 1 1 < 7 < n i < < < 3 3 < 7 > e c 1 < 7 < < 7 7 < = h k = 3 3 3 7 3 3 < 3 n t > < 1 < "
};
